<svg width="600" height="400" viewBox="0 0 600 400" xmlns="http://www.w3.org/2000/svg">
  <defs>
    <linearGradient id="portfolioGradient" x1="0%" y1="0%" x2="100%" y2="100%">
      <stop offset="0%" style="stop-color:#10b981;stop-opacity:1" />
      <stop offset="100%" style="stop-color:#059669;stop-opacity:1" />
    </linearGradient>
  </defs>
  
  <!-- Background -->
  <rect width="600" height="400" fill="url(#portfolioGradient)" />
  
  <!-- Portfolio website mockup -->
  <rect x="100" y="70" width="400" height="280" rx="8" fill="#ffffff" stroke="#e2e8f0" stroke-width="2" />
  
  <!-- Header area -->
  <rect x="100" y="70" width="400" height="60" rx="8 8 0 0" fill="#f1f5f9" />
  
  <!-- Navigation menu -->
  <circle cx="130" cy="100" r="15" fill="#f43f5e" />
  <rect x="160" y="90" width="60" height="20" rx="4" fill="#e2e8f0" />
  <rect x="230" y="90" width="60" height="20" rx="4" fill="#e2e8f0" />
  <rect x="300" y="90" width="60" height="20" rx="4" fill="#e2e8f0" />
  <rect x="370" y="90" width="60" height="20" rx="4" fill="#e2e8f0" />
  <rect x="440" y="90" width="40" height="20" rx="4" fill="#10b981" />
  
  <!-- Hero section -->
  <rect x="120" y="150" width="180" height="180" fill="#f8fafc" rx="8" />
  <circle cx="210" cy="190" r="30" fill="#e2e8f0" />
  <rect x="150" y="230" width="120" height="10" rx="2" fill="#e2e8f0" />
  <rect x="150" y="250" width="120" height="10" rx="2" fill="#e2e8f0" />
  <rect x="150" y="270" width="120" height="10" rx="2" fill="#e2e8f0" />
  <rect x="150" y="290" width="80" height="20" rx="4" fill="#10b981" />
  
  <!-- Projects grid -->
  <rect x="320" y="150" width="160" height="70" rx="8" fill="#f8fafc" />
  <rect x="330" y="160" width="50" height="50" rx="4" fill="#e2e8f0" />
  <rect x="390" y="165" width="80" height="10" rx="2" fill="#e2e8f0" />
  <rect x="390" y="185" width="80" height="10" rx="2" fill="#e2e8f0" />
  
  <rect x="320" y="230" width="160" height="70" rx="8" fill="#f8fafc" />
  <rect x="330" y="240" width="50" height="50" rx="4" fill="#e2e8f0" />
  <rect x="390" y="245" width="80" height="10" rx="2" fill="#e2e8f0" />
  <rect x="390" y="265" width="80" height="10" rx="2" fill="#e2e8f0" />
  
  <!-- Title -->
  <text x="300" y="355" fill="white" font-family="Arial, sans-serif" font-size="24" font-weight="bold" text-anchor="middle">PORTFOLIO WEBSITE</text>
</svg>
